Coordinates
version=1
nRows=16
nColumns=33
inDegrees=yes

Units are S.I. units (second, meters, Newtons, ...)
Angles are in degrees.

endheader
time	ground_thorax_rot_x	ground_thorax_rot_y	ground_thorax_rot_z	ground_thorax_tx	ground_thorax_ty	ground_thorax_tz	clav_prot_r	clav_elev_r	scapula_abduction_r	scapula_elevation_r	scapula_upward_rot_r	scapula_winging_r	shoulder_elv_r	plane_of_elev_r	axial_rot_r	elbow_flexion_r	pro_sup_r	wrist_flex_r	wrist_dev_r	clav_prot_l	clav_elev_l	scapula_abduction_l	scapula_elevation_l	scapula_upward_rot_l	scapula_winging_l	shoulder_elv_l	plane_of_elev_l	axial_rot_l	elbow_flexion_l	pro_sup_l	wrist_flex_l	wrist_dev_l
      5.18000000	     38.86795783	      1.99347174	      5.20930592	    -57.11156858	    790.46203952	     -2.93133085	     15.69837761	     42.90560400	     45.00000000	     44.48188087	    -22.76100130	  -1878.17318059	  -4614.24642012	     29.15929345	    179.99999979	    359.23522410	    177.14790289	     14.46119661	     11.17583023	      5.88216980	    -45.00000000	    -45.00000000	     45.00000000	     -8.81229185	   1164.25235141	  -3171.10415596	     17.66548011	    -52.90123054	   -343.27647195	   -162.14762781	     -6.14127549	     -7.38626515
      5.19000000	     38.93467786	      1.79797603	      4.78168235	    -57.99520308	    790.72914583	     -3.02752254	     15.50419742	     42.89575609	     45.00000000	     44.54608853	    -22.42731942	  -1878.29295471	  -4614.23407878	     29.23962508	    179.99999979	    359.19078609	    176.87718144	     14.28195485	     11.03324734	      5.64478705	    -45.00000000	    -45.00000000	     45.00000000	     -8.31727620	   1164.43454605	  -3171.06686930	     17.88692050	    -52.52833394	   -343.12396929	   -163.41134276	     -6.12819742	     -7.61012570
      5.20000000	     38.96832007	      1.85254259	      4.68254812	    -59.09380777	    790.99537266	     -3.13127701	     15.43594868	     42.98992659	     45.00000000	     44.59852070	    -22.43170489	  -1878.40732357	  -4614.19675403	     29.18385067	    179.99999979	    359.11114756	    176.58679122	     14.44435819	     11.15758462	      5.54347479	    -45.00000000	    -45.00000000	     45.00000000	     -8.05334498	   1164.64811207	  -3171.00012412	     17.93111619	    -52.09246842	   -342.90761995	   -164.80914920	     -6.19784529	     -7.78709704
      5.21000000	     39.03289080	      1.86598604	      4.52806816	    -60.39638874	    791.26609688	     -3.23935932	     15.41501091	     42.91940703	     45.00000000	     44.69431657	    -22.55969828	  -1878.54942570	  -4614.08376220	     29.25226363	    179.99999979	    358.98648745	    176.26277915	     14.43189587	     11.10610909	      5.48807000	    -45.00000000	    -45.00000000	     45.00000000	     -7.95779649	   1164.89098249	  -3170.93904715	     18.14476611	    -51.60696224	   -342.70908002	   -166.36858804	     -6.18922990	     -8.04059894
      5.22000000	     39.06957772	      1.99176994	      4.50103846	    -61.89732106	    791.55035894	     -3.34857141	     15.39530194	     42.99201423	     45.00000000	     44.79162124	    -22.78249771	  -1878.64627996	  -4613.97939269	     29.24406949	    179.99999979	    358.86266716	    175.88290637	     14.54709114	     11.16423842	      5.43419730	    -45.00000000	    -45.00000000	     45.00000000	     -7.82929254	   1165.14760901	  -3170.86185186	     18.24948126	    -51.03662278	   -342.47971831	   -168.07679194	     -6.22273395	     -8.28021400
      5.23000000	     39.21266006	      2.05973277	      4.41312156	    -63.59781260	    791.85877678	     -3.45563064	     15.42164516	     42.90828420	     45.00000000	     45.00000000	    -23.07249242	  -1878.77187100	  -4613.78735497	     29.29104461	    179.99999979	    358.67418064	    175.43299206	     14.60338142	     11.14950164	      5.41166254	    -45.00000000	    -45.00000000	     45.00000000	     -7.85218935	   1165.41385189	  -3170.87181112	     18.41080816	    -50.41183214	   -342.21787945	   -170.04990896	     -6.24725742	     -8.57203688
      5.24000000	     39.17602585	      2.68625151	      4.99521529	    -65.48819540	    792.19832889	     -3.55651544	     15.98591941	     42.89047437	     45.00000000	     45.00000000	    -24.71120813	  -1878.59381482	  -4613.17827698	     29.24760319	    179.99999979	    358.33187081	    172.60647119	     14.55527650	     11.20678772	      6.02334112	    -45.00000000	    -45.00000000	     45.00000000	     -9.26933025	   1165.48550572	  -3171.13096204	     27.96937801	      8.36406715	   -358.67518465	   -320.95199190	     11.28936162	    -20.90650922
      5.25000000	     39.22184066	      2.49884221	      4.68908576	    -67.58162566	    792.58754545	     -3.64967669	     15.54486527	     42.91151780	     45.00000000	     45.00000000	    -24.31197086	  -1878.98654567	  -4613.19687973	     29.31629202	    179.99999979	    358.13276074	    172.59997541	     14.66951170	     11.35579385	      5.65805307	    -45.00000000	    -45.00000000	     45.00000000	     -8.74503314	   1165.90573966	  -3171.21439852	     27.93643784	      7.73619214	   -358.31261039	   -321.13741677	     11.30921686	    -21.04944723
      5.26000000	     39.22734615	      2.63521217	      4.72291156	    -69.87642860	    793.03029910	     -3.73220837	     15.59559020	     43.13329163	     45.00000000	     45.00000000	    -24.47268944	  -1879.16300589	  -4613.00821160	     29.18943600	    179.99999979	    357.97537404	    172.48601272	     14.78831774	     11.31927997	      5.71735136	    -45.00000000	    -45.00000000	     45.00000000	     -8.91346410	   1166.16522269	  -3171.03966862	     27.80149562	      6.91412951	   -358.05266020	   -321.44517768	     11.22979123	    -21.15898254
      5.27000000	     39.20618590	      2.74722920	      4.75226448	    -72.36381528	    793.53733577	     -3.80225180	     15.45446910	     42.90858615	     45.00000000	     45.00000000	    -24.51878341	  -1879.54670309	  -4613.01638461	     29.17644378	    179.99999979	    357.80866468	    172.32164849	     14.92692496	     11.38754585	      5.69746103	    -45.00000000	    -45.00000000	     45.00000000	     -8.91281155	   1166.60112875	  -3171.03175609	     27.70388277	      6.11359803	   -357.69146616	   -321.80954344	     11.21544415	    -21.35210973
      5.28000000	     39.18932003	      2.89889657	      4.88686612	    -75.04210790	    794.11631554	     -3.85818534	     15.48473238	     43.02569249	     45.00000000	     45.00000000	    -24.80605385	  -1879.75760132	  -4612.82523087	     29.10555392	    179.99999979	    357.61462542	    172.06464459	     15.06636798	     11.38536223	      5.74442534	    -45.00000000	    -45.00000000	     45.00000000	     -9.09296765	   1166.96740766	  -3170.86618396	     27.57289309	      5.34404740	   -357.45832484	   -322.23599127	     11.16083737	    -21.42846934
      5.29000000	     39.16407916	      3.05106187	      5.05576969	    -77.90095069	    794.77276424	     -3.89820108	     15.44048988	     42.98992315	     45.00000000	     45.00000000	    -25.04697979	  -1880.05219113	  -4612.70583731	     29.06886076	    179.99999979	    357.43544344	    171.74437934	     15.20559763	     11.43119535	      5.80492386	    -45.00000000	    -45.00000000	     45.00000000	     -9.30504186	   1167.39298746	  -3170.72268847	     27.45759088	      4.64171003	   -357.25663526	   -322.69353350	     11.14102588	    -21.52211770
      5.30000000	     39.13202496	      3.22624462	      5.23779687	    -80.94245372	    795.51374232	     -3.92009679	     15.46350100	     43.03170994	     45.00000000	     45.00000000	    -25.34229369	  -1880.33252893	  -4612.56369667	     29.00558762	    179.99999979	    357.29133154	    171.34767603	     15.33838048	     11.46017128	      5.90117362	    -45.00000000	    -45.00000000	     45.00000000	     -9.58565860	   1167.78769488	  -3170.51302552	     27.35878256	      4.02983434	   -357.12714816	   -323.18503748	     11.11750750	    -21.56769330
      5.31000000	     39.06787856	      3.41862170	      5.46537339	    -84.16531615	    796.34412022	     -3.92179002	     15.50590777	     42.99742668	     45.00000000	     45.00000000	    -25.72731278	  -1880.63867270	  -4612.41232640	     28.99379310	    179.99999979	    357.12629522	    170.85019038	     15.48260932	     11.48944250	      6.01269213	    -45.00000000	    -45.00000000	     45.00000000	     -9.91437991	   1168.22790478	  -3170.29471698	     27.27652528	      3.46100440	   -356.98940196	   -323.68628083	     11.10778574	    -21.61495322
      5.32000000	     39.00449750	      3.60525771	      5.67751474	    -87.56994606	    797.26695065	     -3.90123298	     15.53694451	     42.94232287	     45.00000000	     45.00000000	    -26.09099051	  -1880.95534481	  -4612.27878257	     28.95401042	    179.99999979	    356.96961191	    170.23936483	     15.62469180	     11.52984468	      6.11692616	    -45.00000000	    -45.00000000	     45.00000000	    -10.23541977	   1168.67160826	  -3170.10020478	     27.17564509	      2.89289618	   -356.84530924	   -324.17691972	     11.10517429	    -21.66309025
      5.33000000	     38.93213117	      3.77315010	      5.87676491	    -91.14583432	    798.27972265	     -3.85734478	     15.55215254	     42.86199462	     45.00000000	     45.00000000	    -26.45325127	  -1881.27963364	  -4612.15450294	     28.91400455	    179.99999979	    356.81714471	    169.53491788	     15.76696972	     11.57534883	      6.21589077	    -45.00000000	    -45.00000000	     45.00000000	    -10.55456471	   1169.13019348	  -3169.90727802	     27.06259672	      2.27212827	   -356.69210901	   -324.65152196	     11.10579815	    -21.71318732
